# xmcd
#
# Track frame offsets:
#	150
#	26525
#	53382
#	80776
#	159806
#	326265
#
# Disc length: 4798 seconds
#
# Revision: 0
# Processed by: cddbd v1.5.2PL0 Copyright (c) Steve Scherf et al.
# Submitted via: audiograbber 1.82.02
#
DISCID=3712bc06
DTITLE=The Allman Brothers Band - Pine Nob (Bootleg) - Disc 2
DYEAR=2001
DGENRE=Southern Rock
TTITLE0=End Of The Line
TTITLE1=Stand Back
TTITLE2=I've Been Lovin' You Too Long
TTITLE3=Dreams
TTITLE4=Mountain Jam
TTITLE5=Encore - One Way Out
EXTD=
EXTT0=
EXTT1=
EXTT2=
EXTT3=
EXTT4=
EXTT5=
PLAYORDER=
